<mxfile host="app.diagrams.net" modified="2023-12-03T15:33:57.419Z" agent="Mozilla/5.0 (Macintosh; Intel Mac OS X 10_15_7) AppleWebKit/605.1.15 (KHTML, like Gecko) Version/17.1 Safari/605.1.15" version="22.1.4" etag="QprK7oMycrSxt1k3Om0L" type="github">
  <diagram name="Page-1" id="Icg6aWWeegkk8BPV3jtU">
    <mxGraphModel>
      <root>
        <mxCell id="0" />
        <mxCell id="1" parent="0" />
      </root>
    </mxGraphModel>
  </diagram>
</mxfile>
